<?xml version="1.0" encoding="utf-8"?>
<!-- Generator: Adobe Illustrator 21.1.0, SVG Export Plug-In . SVG Version: 6.00 Build 0)  -->
<svg version="1.1" id="Слой_1" xmlns="http://www.w3.org/2000/svg" xmlns:xlink="http://www.w3.org/1999/xlink" x="0px" y="0px"
	 viewBox="0 0 207.3 206.5" style="enable-background:new 0 0 207.3 206.5;" xml:space="preserve">
<style type="text/css">
	.st0{fill:url(#SVGID_1_);stroke:#DDDDDD;stroke-width:6;stroke-miterlimit:10;}
	.st1{fill:none;stroke:#0B0F1E;stroke-width:2;stroke-linecap:round;}
	.st2{fill:none;stroke:#0B0F1E;stroke-width:4;stroke-miterlimit:10;}
</style>
<radialGradient id="SVGID_1_" cx="103.625" cy="103.248" r="99.3333" gradientUnits="userSpaceOnUse">
	<stop  offset="0" style="stop-color:#F6F6F6;stop-opacity:0.95"/>
	<stop  offset="0.6213" style="stop-color:#DADADA"/>
	<stop  offset="0.7819" style="stop-color:#D0D0CF"/>
	<stop  offset="0.9876" style="stop-color:#C7C6C6"/>
</radialGradient>
<path class="st0" d="M179.9,202.6H27.3c-12.7,0-23-10.4-23-23V27c0-12.7,10.4-23,23-23h152.6c12.7,0,23,10.4,23,23v152.6
	C203,192.2,192.6,202.6,179.9,202.6z"/>
<g>
	<g>
		<g>
			<g>
				<path class="st1" d="M40.5,99.4c2.4-0.9,4.8-1.7,7.2-2.5"/>
			</g>
			<g>
				<path class="st1" d="M52.4,95.5c2.4-0.7,4.9-1.4,7.3-2"/>
			</g>
			<g>
				<path class="st1" d="M64.5,92.4l3.7-0.8c1.2-0.3,2.5-0.5,3.7-0.7"/>
			</g>
			<g>
				<path class="st1" d="M76.7,90.1c2.5-0.4,5-0.7,7.5-1"/>
			</g>
			<g>
				<path class="st1" d="M89.1,88.7c2.5-0.3,5-0.4,7.6-0.5"/>
			</g>
			<g>
				<path class="st1" d="M101.6,88c2.5-0.1,5-0.1,7.6,0"/>
			</g>
			<g>
				<path class="st1" d="M114,88.1c2.5,0.1,5,0.3,7.6,0.4"/>
			</g>
			<g>
				<path class="st1" d="M126.5,89c1.3,0.1,2.5,0.3,3.8,0.4c1.3,0.2,2.5,0.3,3.8,0.5"/>
			</g>
			<g>
				<path class="st1" d="M138.8,90.6c2.5,0.4,5,0.9,7.4,1.4"/>
			</g>
			<g>
				<path class="st1" d="M151.1,93.1c2.5,0.6,4.9,1.2,7.3,1.9"/>
			</g>
			<g>
				<path class="st1" d="M163.1,96.5c2.4,0.8,4.8,1.6,7.2,2.4"/>
			</g>
		</g>
	</g>
</g>
<g>
	<g>
		<g>
			<g>
				<path class="st1" d="M120.7,91.7c0.2,2.5,0.4,4.9,0.5,7.4"/>
			</g>
			<g>
				<path class="st1" d="M121.3,103.9c0,2.5,0,4.9-0.1,7.4"/>
			</g>
			<g>
				<path class="st1" d="M120.9,116.1c-0.1,1.2-0.2,2.5-0.3,3.7c-0.1,1.2-0.2,2.5-0.4,3.7"/>
			</g>
			<g>
				<path class="st1" d="M119.7,128.2l-0.6,3.7c-0.2,1.2-0.4,2.4-0.7,3.6"/>
			</g>
			<g>
				<path class="st1" d="M117.5,140.2c-0.2,1.2-0.5,2.4-0.8,3.6c-0.3,1.2-0.6,2.4-0.9,3.6"/>
			</g>
			<g>
				<path class="st1" d="M114.4,152c-0.4,1.2-0.7,2.4-1.1,3.5c-0.4,1.2-0.8,2.3-1.2,3.5"/>
			</g>
			<g>
				<path class="st1" d="M110.3,163.5c-0.9,2.3-1.9,4.6-2.9,6.8"/>
			</g>
		</g>
	</g>
</g>
<g>
	<g>
		<g>
			<g>
				<path class="st1" d="M106.9,37.8c1.1,2.5,2.1,5,3.1,7.5"/>
			</g>
			<g>
				<polyline class="st1" points="111.8,50.3 113.1,54.1 114.3,58 				"/>
			</g>
			<g>
				<path class="st1" d="M115.7,63.1c0.3,1.3,0.7,2.6,1,4c0.3,1.3,0.6,2.6,0.9,4"/>
			</g>
			<g>
				<path class="st1" d="M118.5,76.3c0.5,2.7,0.9,5.4,1.3,8.1"/>
			</g>
		</g>
	</g>
</g>
<path class="st2" d="M36.4,100.8c9.8,4.9,33.4,15.4,66.3,15.9c36.1,0.6,62-11,71.7-15.9"/>
<circle class="st2" cx="105.4" cy="103.2" r="69.3"/>
<path class="st2" d="M105.1,33.9c-6.3,9.8-19.6,33.6-20.3,66.6c-0.8,36.2,14.1,62.3,20.3,72"/>
</svg>
