<?xml version="1.0" encoding="utf-8"?>
<!-- Generator: Adobe Illustrator 21.1.0, SVG Export Plug-In . SVG Version: 6.00 Build 0)  -->
<svg version="1.1" id="Слой_1" xmlns="http://www.w3.org/2000/svg" xmlns:xlink="http://www.w3.org/1999/xlink" x="0px" y="0px"
	 viewBox="0 0 207 207" style="enable-background:new 0 0 207 207;" xml:space="preserve">
<style type="text/css">
	.st0{fill:url(#SVGID_1_);stroke:#DDDDDD;stroke-width:6;stroke-miterlimit:10;}
	.st1{fill:#121428;}
	.st2{fill:#090E1B;}
	.st3{opacity:0.9;}
	.st4{fill:none;stroke:#0B0F1E;stroke-width:2;stroke-linecap:round;}
</style>
<radialGradient id="SVGID_1_" cx="103.4748" cy="103.7728" r="99.3333" gradientUnits="userSpaceOnUse">
	<stop  offset="0" style="stop-color:#F6F6F6;stop-opacity:0.95"/>
	<stop  offset="0.6213" style="stop-color:#DADADA"/>
	<stop  offset="0.7819" style="stop-color:#D0D0CF"/>
	<stop  offset="0.9876" style="stop-color:#C7C6C6"/>
</radialGradient>
<path class="st0" d="M179.8,203.1H27.2c-12.7,0-23-10.4-23-23V27.5c0-12.7,10.4-23,23-23h152.6c12.7,0,23,10.4,23,23v152.6
	C202.8,192.7,192.4,203.1,179.8,203.1z"/>
<polygon class="st1" points="34.4,76.6 104.2,40 174.4,76.6 104.4,112.7 "/>
<polygon class="st2" points="53.1,94.3 34.4,104.1 104.4,140.8 172.6,104.1 155,94.3 104.4,119.9 "/>
<g class="st3">
	<g>
		<g>
			<g>
				<line class="st4" x1="39.5" y1="137.5" x2="46.1" y2="140.9"/>
			</g>
			<g>
				<line class="st4" x1="50.3" y1="143.2" x2="57" y2="146.7"/>
			</g>
			<g>
				<line class="st4" x1="61.2" y1="148.9" x2="67.8" y2="152.4"/>
			</g>
			<g>
				<line class="st4" x1="72.1" y1="154.6" x2="78.7" y2="158.1"/>
			</g>
			<g>
				<line class="st4" x1="83" y1="160.3" x2="89.6" y2="163.8"/>
			</g>
			<g>
				<line class="st4" x1="93.9" y1="166" x2="100.5" y2="169.5"/>
			</g>
			<g>
				<line class="st4" x1="108.2" y1="169.5" x2="114.6" y2="166"/>
			</g>
			<g>
				<line class="st4" x1="118.8" y1="163.8" x2="125.2" y2="160.3"/>
			</g>
			<g>
				<line class="st4" x1="129.4" y1="158.1" x2="135.8" y2="154.6"/>
			</g>
			<g>
				<line class="st4" x1="140" y1="152.3" x2="146.4" y2="148.9"/>
			</g>
			<g>
				<line class="st4" x1="150.6" y1="146.6" x2="157.1" y2="143.2"/>
			</g>
			<g>
				<line class="st4" x1="161.2" y1="140.9" x2="167.7" y2="137.5"/>
			</g>
			<g>
				<line class="st4" x1="167" y1="131.7" x2="159.4" y2="127.5"/>
			</g>
			<g>
				<line class="st4" x1="150.8" y1="127.2" x2="143.7" y2="130.8"/>
			</g>
			<g>
				<line class="st4" x1="139.1" y1="133.1" x2="132" y2="136.7"/>
			</g>
			<g>
				<line class="st4" x1="127.3" y1="139" x2="120.2" y2="142.6"/>
			</g>
			<g>
				<line class="st4" x1="115.6" y1="145" x2="108.5" y2="148.6"/>
			</g>
			<g>
				<line class="st4" x1="100.2" y1="148.6" x2="93" y2="145"/>
			</g>
			<g>
				<line class="st4" x1="88.3" y1="142.6" x2="81.1" y2="139"/>
			</g>
			<g>
				<line class="st4" x1="76.4" y1="136.7" x2="69.2" y2="133.1"/>
			</g>
			<g>
				<line class="st4" x1="64.5" y1="130.8" x2="57.2" y2="127.2"/>
			</g>
			<g>
				<line class="st4" x1="48.4" y1="127.5" x2="40.3" y2="131.7"/>
			</g>
		</g>
	</g>
</g>
</svg>
