<?xml version="1.0" encoding="utf-8"?>
<!-- Generator: Adobe Illustrator 21.1.0, SVG Export Plug-In . SVG Version: 6.00 Build 0)  -->
<svg version="1.1" id="Слой_1" xmlns="http://www.w3.org/2000/svg" xmlns:xlink="http://www.w3.org/1999/xlink" x="0px" y="0px"
	 viewBox="0 0 206.3 207.2" style="enable-background:new 0 0 206.3 207.2;" xml:space="preserve">
<style type="text/css">
	.st0{fill:url(#SVGID_1_);stroke:#DDDDDD;stroke-width:6;stroke-miterlimit:10;}
	.st1{fill:#121428;stroke:#090E1B;stroke-width:3;stroke-miterlimit:10;}
</style>
<radialGradient id="SVGID_1_" cx="103.6085" cy="103.7683" r="99.3333" gradientUnits="userSpaceOnUse">
	<stop  offset="0" style="stop-color:#F6F6F6;stop-opacity:0.95"/>
	<stop  offset="0.6213" style="stop-color:#DADADA"/>
	<stop  offset="0.7819" style="stop-color:#D0D0CF"/>
	<stop  offset="0.9876" style="stop-color:#C7C6C6"/>
</radialGradient>
<path class="st0" d="M179.9,203.1H27.3c-12.7,0-23-10.4-23-23V27.5c0-12.7,10.4-23,23-23h152.6c12.7,0,23,10.4,23,23v152.6
	C202.9,192.7,192.6,203.1,179.9,203.1z"/>
<path class="st1" d="M54.8,58.6l18.3-18.2l18.7,18.2H79.5l0.2,77.6h89.4V149H144v13h11.7l-17.4,18.7l-19.2-18.5h11.7v-13H77.9
	c-10.3-1.8-10.7-10.7-10.7-10.7V85.2H41.4v-13h25.4V58.6H54.8z"/>
<path class="st1" d="M93.2,72.7h39.5c10.3,1.8,10.7,9.4,10.7,9.4v40.9h-12.3V85.2H93.2V72.7z"/>
</svg>
